<?xml version="1.0"?>
<svg xmlns="http://www.w3.org/2000/svg" class="icon--sprite">
  <defs>
    <symbol viewBox="0 0 24 24" stroke-linecap="round" stroke-linejoin="round" id="icon--fiware-clipboard">
      <path d="M9 5h-2a2 2 0 0 0 -2 2v12a2 2 0 0 0 2 2h3m9 -9v-5a2 2 0 0 0 -2 -2h-2"/>
      <path d="M13 17v-1a1 1 0 0 1 1 -1h1m3 0h1a1 1 0 0 1 1 1v1m0 3v1a1 1 0 0 1 -1 1h-1m-3 0h-1a1 1 0 0 1 -1 -1v-1"/>
      <path d="M9 3m0 2a2 2 0 0 1 2 -2h2a2 2 0 0 1 2 2v0a2 2 0 0 1 -2 2h-2a2 2 0 0 1 -2 -2z"/>
    </symbol>
    <symbol viewBox="0 0 24 24" stroke-linecap="round" stroke-linejoin="round" id="icon--fiware-publish">
      <path d="M9 15l6 -6"/>
      <path d="M11 6l.463 -.536a5 5 0 0 1 7.072 0a4.993 4.993 0 0 1 -.001 7.072"/>
      <path d="M12.603 18.534a5.07 5.07 0 0 1 -7.127 0a4.972 4.972 0 0 1 0 -7.071l.524 -.463"/>
      <path d="M16 19h6"/>
      <path d="M19 16v6"/>
    </symbol>
    <symbol viewBox="0 0 24 24" stroke-linecap="round" stroke-linejoin="round" id="icon--fiware-unpublish">
      <path d="M9 15l6 -6"/>
      <path d="M11 6l.463 -.536a5 5 0 1 1 7.071 7.072l-.534 .464"/>
      <path d="M12.603 18.534a5.07 5.07 0 0 1 -7.127 0a4.972 4.972 0 0 1 0 -7.071l.524 -.463"/>
      <path d="M16 19h6"/>
    </symbol>
  </defs>
</svg>
